<svg width="224" height="17" viewBox="0 0 224 17" fill="none" xmlns="http://www.w3.org/2000/svg">
<g clip-path="url(#clip0_16_17)">
<path d="M28.5438 0.575439V16.1575H26.0159V9.63544L26.262 4.11476L18.4103 16.1575H15.4351V0.575439H17.9628V7.09752L17.7392 12.5959L25.5687 0.575439H28.5438Z" fill="black"/>
<path d="M40.719 6.27414H36.7148V16.1575H34.1869V6.27414H30.1604V3.91431H40.719V6.27414Z" fill="black"/>
<path d="M54.0821 10.0358C54.0821 13.6866 51.4203 16.4245 47.7291 16.4245C44.821 16.4245 42.1592 14.7328 41.5999 11.6832H44.217C44.6645 13.2858 46.1187 14.1541 47.7291 14.1541C49.6754 14.1541 51.107 12.8851 51.4426 10.9709H46.9015V8.98957H51.4204C51.0624 7.14216 49.6528 5.91798 47.7068 5.91798C46.0515 5.91798 44.6421 6.80787 44.217 8.36634H41.5999C42.1365 5.40548 44.754 3.64691 47.7068 3.64691C51.398 3.64691 54.0821 6.38511 54.0821 10.0358Z" fill="black"/>
<path d="M67.5352 3.91431V16.1575H65.0072V6.27417H60.936L60.1305 11.394C59.5266 15.0444 58.1622 16.4245 56.0595 16.4245C55.6566 16.4245 55.2092 16.358 54.8066 16.2911V14.0205C55.0527 14.0428 55.2987 14.0874 55.5448 14.0874C56.7303 14.0874 57.245 13.4417 57.6252 11.1712L58.7885 3.91431H67.5352Z" fill="black"/>
<path d="M83.444 3.91431V16.1575H80.916V11.0378L81.0953 6.78603L76.8671 12.774H76.8L72.5724 6.78603L72.7511 11.0378V16.1575H70.2231V3.91431H73.1985L76.8224 8.94503L80.4686 3.91431H83.444Z" fill="black"/>
<path d="M95.6033 10.0358C95.6033 7.69873 93.9707 6.05149 91.8231 6.05149C89.6755 6.05149 88.1546 7.69873 88.1546 10.0358C88.1546 12.3955 89.6978 14.0205 91.8231 14.0205C93.9707 14.0205 95.6033 12.3955 95.6033 10.0358ZM98.109 3.91426V16.1575H95.581V14.1097C94.6862 15.512 93.21 16.4245 91.2864 16.4245C87.9976 16.4245 85.6042 13.7756 85.6042 10.0358C85.6042 6.29599 88.0429 3.64691 91.264 3.64691C93.21 3.64691 94.6862 4.60437 95.581 6.00678V3.91426H98.109Z" fill="black"/>
<path d="M111.222 7.39559C111.222 9.3651 109.797 10.84 107.818 10.84C106.241 10.84 104.979 9.90734 104.587 8.52791H105.744C106.078 9.33663 106.881 9.81233 107.818 9.81233C109.023 9.81233 109.893 9.01314 110.084 7.881H107.264V6.85335H110.075C109.864 5.74981 109.004 4.97924 107.818 4.97924C106.872 4.97924 106.078 5.45496 105.744 6.2637H104.587C104.969 4.88423 106.221 3.9516 107.809 3.9516C109.797 3.9516 111.222 5.42645 111.222 7.39559Z" fill="black"/>
<path d="M117.101 5.4931V10.7256H116.02V6.5015H114.28L113.936 8.68958C113.678 10.2499 113.095 10.84 112.196 10.84C112.024 10.84 111.833 10.8111 111.661 10.7826V9.81231C111.766 9.82184 111.871 9.84085 111.976 9.84085C112.483 9.84085 112.703 9.56484 112.866 8.59456L113.363 5.4931H117.101Z" fill="black"/>
<path d="M119.42 7.52877H122.48C122.317 6.8155 121.773 6.31103 120.979 6.31103C120.156 6.31103 119.602 6.82479 119.42 7.52877ZM123.636 8.40446H119.363C119.449 9.36514 120.128 9.89785 121.008 9.89785C121.639 9.89785 122.164 9.63137 122.413 9.11803H123.531C123.12 10.2881 122.116 10.84 120.998 10.84C119.401 10.84 118.263 9.69803 118.263 8.11886C118.263 6.53962 119.392 5.37878 120.979 5.37878C122.671 5.37878 123.741 6.68242 123.636 8.40446Z" fill="black"/>
<path d="M128.319 10.7256L125.843 8.30889V10.7256H124.762V5.4931H125.843V7.7573L128.118 5.4931H129.504L126.932 7.976L129.715 10.7256H128.319Z" fill="black"/>
<path d="M134.828 6.50155H133.116V10.7256H132.036V6.50155H130.315V5.4931H134.828V6.50155Z" fill="black"/>
<path d="M140.009 8.10913C140.009 7.11026 139.359 6.40634 138.441 6.40634C137.523 6.40634 136.825 7.11026 136.825 8.10913C136.825 9.11796 137.523 9.81229 138.441 9.81229C139.349 9.81229 140.009 9.11796 140.009 8.10913ZM141.099 8.10913C141.099 9.70762 140.076 10.8399 138.671 10.8399C137.848 10.8399 137.217 10.44 136.835 9.85029V13.1042H135.754V5.49308H136.835V6.38715C137.217 5.78793 137.848 5.37872 138.68 5.37872C140.057 5.37872 141.099 6.51101 141.099 8.10913Z" fill="black"/>
<path d="M143.125 8.1092C143.125 9.11803 143.842 9.81236 144.759 9.81236C145.678 9.81236 146.395 9.11803 146.395 8.1092C146.395 7.1008 145.668 6.40641 144.759 6.40641C143.851 6.40641 143.125 7.1008 143.125 8.1092ZM147.484 8.1092C147.484 9.67909 146.289 10.84 144.759 10.84C143.24 10.84 142.035 9.6695 142.035 8.1092C142.035 6.5299 143.259 5.37878 144.759 5.37878C146.27 5.37878 147.484 6.5299 147.484 8.1092Z" fill="black"/>
<path d="M153.581 5.4931V10.7256H152.501V8.56602H149.709V10.7256H148.629V5.4931H149.709V7.54796H152.501V5.4931H153.581Z" fill="black"/>
<path d="M159.94 5.4931V10.7256H158.86V8.56602H156.068V10.7256H154.988V5.4931H156.068V7.54796H158.86V5.4931H159.94Z" fill="black"/>
<path d="M167.676 5.4931V10.7256H166.596V5.4931H167.676ZM164.732 8.88938C164.732 8.4044 164.54 8.08067 163.88 8.08067H162.427V9.69797H163.861C164.521 9.69797 164.732 9.35542 164.732 8.88938ZM165.821 8.88938C165.821 10.1452 164.98 10.7256 163.9 10.7256H161.347V5.4931H162.427V7.12927H163.938C165.018 7.12927 165.821 7.63345 165.821 8.88938Z" fill="black"/>
<path d="M170.002 7.52877H173.061C172.898 6.8155 172.354 6.31103 171.56 6.31103C170.738 6.31103 170.183 6.82479 170.002 7.52877ZM174.218 8.40446H169.944C170.031 9.36514 170.709 9.89785 171.589 9.89785C172.219 9.89785 172.745 9.63137 172.994 9.11803H174.113C173.701 10.2881 172.697 10.84 171.579 10.84C169.983 10.84 168.845 9.69803 168.845 8.11886C168.845 6.53962 169.973 5.37878 171.56 5.37878C173.252 5.37878 174.323 6.68242 174.218 8.40446Z" fill="black"/>
<path d="M183.179 8.10912C183.179 7.1105 182.529 6.40633 181.611 6.40633C180.693 6.40633 179.995 7.1105 179.995 8.10912C179.995 9.11795 180.693 9.81216 181.611 9.81216C182.52 9.81216 183.179 9.11795 183.179 8.10912ZM184.269 8.10912C184.269 9.70749 183.246 10.8401 181.84 10.8401C181.019 10.8401 180.387 10.4401 180.005 9.85017V13.1041H178.925V5.49308H180.005V6.38739C180.387 5.78793 181.019 5.37885 181.85 5.37885C183.227 5.37885 184.269 6.511 184.269 8.10912Z" fill="black"/>
<path d="M186.362 7.52913H189.421C189.259 6.81556 188.714 6.3112 187.92 6.3112C187.098 6.3112 186.544 6.82473 186.362 7.52913ZM190.578 8.40439H186.305C186.39 9.36507 187.07 9.89778 187.949 9.89778C188.58 9.89778 189.106 9.63143 189.354 9.11796H190.473C190.062 10.2879 189.058 10.8401 187.94 10.8401C186.343 10.8401 185.205 9.69809 185.205 8.11867C185.205 6.53967 186.334 5.37885 187.92 5.37885C189.613 5.37885 190.683 6.68235 190.578 8.40439Z" fill="black"/>
<path d="M198.769 5.4931V10.7256H191.704V5.4931H192.784V9.71745H194.696V5.4931H195.777V9.71745H197.689V5.4931H198.769Z" fill="black"/>
<path d="M201.098 7.52913H204.158C203.995 6.81556 203.451 6.3112 202.657 6.3112C201.834 6.3112 201.28 6.82473 201.098 7.52913ZM205.315 8.40439H201.041C201.127 9.36507 201.806 9.89778 202.686 9.89778C203.316 9.89778 203.842 9.63143 204.091 9.11796H205.209C204.798 10.2879 203.795 10.8401 202.676 10.8401C201.079 10.8401 199.941 9.69809 199.941 8.11867C199.941 6.53967 201.07 5.37885 202.657 5.37885C204.349 5.37885 205.42 6.68235 205.315 8.40439Z" fill="black"/>
<path d="M211.392 5.4931V10.7256H210.312V8.56619H207.52V10.7256H206.44V5.4931H207.52V7.54807H210.312V5.4931H211.392Z" fill="black"/>
<path d="M217.685 5.4931V10.7256H216.604V8.53765L216.671 6.88209L214.07 10.7256H212.799V5.4931H213.879V7.6814L213.813 9.32694L216.413 5.4931H217.685Z" fill="black"/>
<path d="M222.373 7.94733V6.46347H220.872C220.203 6.46347 219.992 6.78671 219.992 7.2244C219.992 7.65274 220.26 7.94733 220.901 7.94733H222.373ZM223.453 5.4931V10.7256H222.373V8.8323H221.331L219.964 10.7256H218.635L220.174 8.75604C219.447 8.57572 218.902 8.11872 218.902 7.24371C218.902 6.03532 219.734 5.4931 220.814 5.4931H223.453Z" fill="black"/>
<path d="M1.38918 7.23895C0.927933 7.23895 0.553955 6.86695 0.553955 6.40771C0.553955 5.94879 0.927933 5.57678 1.38918 5.57678C1.85043 5.57678 2.2244 5.94879 2.2244 6.40771C2.2244 6.86695 1.85043 7.23895 1.38918 7.23895Z" fill="black"/>
<path d="M7.75952 7.23895C7.29829 7.23895 6.92432 6.86695 6.92432 6.40771C6.92432 5.94879 7.29829 5.57678 7.75952 5.57678C8.22086 5.57678 8.5949 5.94879 8.5949 6.40771C8.5949 6.86695 8.22086 7.23895 7.75952 7.23895Z" fill="black"/>
<path d="M7.75952 13.5783C7.29829 13.5783 6.92432 13.2061 6.92432 12.7471C6.92432 12.288 7.29829 11.9159 7.75952 11.9159C8.22086 11.9159 8.5949 12.288 8.5949 12.7471C8.5949 13.2061 8.22086 13.5783 7.75952 13.5783Z" fill="black"/>
</g>
<defs>
<clipPath id="clip0_16_17">
<rect width="224" height="17" fill="white"/>
</clipPath>
</defs>
</svg>
